<?xml version="1.0" encoding="utf-8"?>
<!-- Generator: Adobe Illustrator 25.2.3, SVG Export Plug-In . SVG Version: 6.00 Build 0)  -->
<svg version="1.1" id="Layer_1" xmlns="http://www.w3.org/2000/svg" xmlns:xlink="http://www.w3.org/1999/xlink" x="0px" y="0px"
	 viewBox="0 0 24 24" style="enable-background:new 0 0 24 24;" xml:space="preserve">
<style type="text/css">
	.st0{fill-rule:evenodd;clip-rule:evenodd;fill:#221E1B;}
</style>
<path class="st0" d="M12,0C5.37,0,0,5.37,0,12c0,5.3,3.44,9.8,8.21,11.39c0.6,0.11,0.82-0.26,0.82-0.58c0-0.28-0.01-1.04-0.02-2.04
	c-3.34,0.73-4.04-1.61-4.04-1.61c-0.55-1.39-1.33-1.76-1.33-1.76c-1.09-0.74,0.08-0.73,0.08-0.73c1.2,0.08,1.84,1.24,1.84,1.24
	c1.07,1.83,2.81,1.3,3.49,1c0.11-0.78,0.42-1.3,0.76-1.6c-2.66-0.3-5.47-1.33-5.47-5.93c0-1.31,0.47-2.38,1.24-3.22
	C5.46,7.85,5.04,6.63,5.7,4.98c0,0,1.01-0.32,3.3,1.23c0.96-0.27,1.98-0.4,3-0.4c1.02,0,2.05,0.14,3,0.4
	c2.29-1.55,3.3-1.23,3.3-1.23c0.65,1.65,0.24,2.87,0.12,3.18c0.77,0.84,1.23,1.91,1.23,3.22c0,4.61-2.81,5.62-5.48,5.92
	c0.43,0.37,0.81,1.1,0.81,2.22c0,1.6-0.01,2.9-0.01,3.29c0,0.32,0.22,0.69,0.83,0.58C20.56,21.8,24,17.3,24,12C24,5.37,18.63,0,12,0
	z"/>
</svg>
