<?xml version="1.0" encoding="utf-8"?>
<!-- Generator: Adobe Illustrator 22.0.1, SVG Export Plug-In . SVG Version: 6.00 Build 0)  -->
<svg version="1.1" id="LOGOS" xmlns="http://www.w3.org/2000/svg" xmlns:xlink="http://www.w3.org/1999/xlink" x="0px" y="0px"
	 viewBox="0 0 358.4 94.3" style="enable-background:new 0 0 358.4 94.3;" xml:space="preserve">
<style type="text/css">
	.st0{fill:#FFFFFF;}
	.st1{fill-rule:evenodd;clip-rule:evenodd;fill:#FFFFFF;}
</style>
<g>
	<g>
		<g>
			<g>
				<g>
					<path class="st0" d="M309,10.8l-22.2,60.9h49.5l22.2-60.9H309z M335.9,71.2h-48.4l10.8-29.7h48.4L335.9,71.2z M298.5,41
						l10.8-29.7h48.4L346.9,41H298.5z"/>
				</g>
				<g>
					<g>
						<g>
							<polygon class="st1" points="311.6,20.3 311.6,31.7 315.1,31.7 315.1,27.6 317.7,27.6 318.6,25.1 315.1,25.1 315.1,22.8 
								319.4,22.8 320.3,20.3 							"/>
						</g>
						<g>
							<rect x="321.4" y="20.3" class="st1" width="3.5" height="11.3"/>
						</g>
						<g>
							<polygon class="st1" points="327.3,20.3 327.3,31.7 330.8,31.7 330.8,27.6 333.4,27.6 334.3,25.1 330.8,25.1 330.8,22.8 
								335.1,22.8 336,20.3 							"/>
						</g>
						<g>
							<path class="st1" d="M346.1,31.7h-3.6l-0.5-1.5h-4l-0.4,1.5h-3.5l4.1-11.3h3.7L346.1,31.7z M341.5,28l-1.4-4.7l-1.4,4.7
								H341.5z"/>
						</g>
					</g>
					<g>
						<path class="st0" d="M344.7,22.6c-0.2,0-0.3,0-0.4-0.1c-0.1-0.1-0.3-0.1-0.4-0.2c-0.1-0.1-0.2-0.2-0.2-0.4
							c-0.1-0.1-0.1-0.3-0.1-0.4c0-0.2,0-0.3,0.1-0.4c0.1-0.1,0.1-0.3,0.2-0.4c0.1-0.1,0.2-0.2,0.4-0.2c0.1-0.1,0.3-0.1,0.4-0.1
							c0.2,0,0.3,0,0.4,0.1c0.1,0.1,0.3,0.1,0.4,0.2c0.1,0.1,0.2,0.2,0.2,0.4c0.1,0.1,0.1,0.3,0.1,0.4c0,0.2,0,0.3-0.1,0.4
							c-0.1,0.1-0.1,0.3-0.2,0.4s-0.2,0.2-0.4,0.2C345,22.6,344.9,22.6,344.7,22.6z M344.7,22.4c0.1,0,0.2,0,0.3-0.1
							c0.1,0,0.2-0.1,0.3-0.2c0.1-0.1,0.1-0.2,0.2-0.3c0-0.1,0.1-0.2,0.1-0.4c0-0.1,0-0.3-0.1-0.4c0-0.1-0.1-0.2-0.2-0.3
							c-0.1-0.1-0.2-0.1-0.3-0.2c-0.1,0-0.2-0.1-0.3-0.1c-0.1,0-0.2,0-0.3,0.1c-0.1,0-0.2,0.1-0.3,0.2c-0.1,0.1-0.1,0.2-0.2,0.3
							c0,0.1-0.1,0.2-0.1,0.4c0,0.1,0,0.3,0.1,0.4c0,0.1,0.1,0.2,0.2,0.3c0.1,0.1,0.2,0.1,0.3,0.2C344.5,22.4,344.6,22.4,344.7,22.4
							z M344.3,20.8h0.5c0.2,0,0.3,0,0.4,0.1c0.1,0.1,0.1,0.2,0.1,0.3c0,0.1,0,0.2-0.1,0.2c-0.1,0.1-0.1,0.1-0.2,0.1l0.3,0.6H345
							l-0.3-0.6h-0.1v0.6h-0.2V20.8z M344.5,21.4h0.2c0,0,0.1,0,0.1,0c0,0,0.1,0,0.1,0c0,0,0,0,0.1-0.1c0,0,0-0.1,0-0.1
							c0,0,0-0.1,0-0.1c0,0,0,0-0.1-0.1c0,0-0.1,0-0.1,0c0,0-0.1,0-0.1,0h-0.2V21.4z"/>
					</g>
				</g>
				<g>
					<g>
						<g>
							<path class="st0" d="M304.7,49.7c0-0.3,0-0.6,0.1-0.8s0.2-0.5,0.4-0.6c0.2-0.2,0.4-0.3,0.6-0.4c0.2-0.1,0.5-0.1,0.8-0.1
								c0.3,0,0.6,0,0.8,0.1c0.2,0.1,0.4,0.2,0.6,0.4c0.2,0.2,0.3,0.4,0.4,0.6c0.1,0.2,0.1,0.5,0.1,0.8c0,0.3,0,0.6-0.1,0.8
								c-0.1,0.3-0.2,0.5-0.4,0.6c-0.2,0.2-0.4,0.3-0.6,0.4c-0.2,0.1-0.5,0.1-0.8,0.1c-0.3,0-0.6,0-0.8-0.1
								c-0.2-0.1-0.4-0.2-0.6-0.4c-0.2-0.2-0.3-0.4-0.4-0.6C304.8,50.3,304.7,50,304.7,49.7z M305.8,49.7c0,0.2,0,0.3,0.1,0.5
								c0,0.2,0.1,0.3,0.2,0.4c0.1,0.1,0.2,0.2,0.3,0.3c0.1,0.1,0.2,0.1,0.4,0.1c0.2,0,0.3,0,0.4-0.1c0.1-0.1,0.2-0.2,0.3-0.3
								c0.1-0.1,0.1-0.2,0.2-0.4c0-0.2,0.1-0.3,0.1-0.5c0-0.2,0-0.3-0.1-0.5c0-0.2-0.1-0.3-0.2-0.4c-0.1-0.1-0.2-0.2-0.3-0.3
								c-0.1-0.1-0.2-0.1-0.4-0.1c-0.2,0-0.3,0-0.4,0.1c-0.1,0.1-0.2,0.2-0.3,0.3c-0.1,0.1-0.1,0.2-0.2,0.4
								C305.8,49.4,305.8,49.5,305.8,49.7z"/>
						</g>
						<g>
							<path class="st0" d="M309.5,47.7h2.6v0.7h-1.6v0.9h1.5v0.7h-1.5v1.6h-1V47.7z"/>
						</g>
						<g>
							<path class="st0" d="M312.9,47.7h2.6v0.7h-1.6v0.9h1.5v0.7h-1.5v1.6h-1V47.7z"/>
						</g>
						<g>
							<path class="st0" d="M316.4,47.7h1v3.9h-1V47.7z"/>
						</g>
						<g>
							<path class="st0" d="M321.7,51.6c-0.1,0-0.3,0.1-0.5,0.1c-0.2,0-0.4,0.1-0.7,0.1c-0.3,0-0.5,0-0.8-0.1
								c-0.3-0.1-0.5-0.2-0.7-0.3c-0.2-0.2-0.4-0.4-0.5-0.6c-0.1-0.3-0.2-0.6-0.2-0.9c0-0.3,0.1-0.6,0.2-0.9
								c0.1-0.3,0.3-0.5,0.5-0.6c0.2-0.2,0.4-0.3,0.7-0.4c0.3-0.1,0.6-0.1,0.9-0.1c0.2,0,0.4,0,0.6,0.1c0.2,0,0.4,0.1,0.6,0.1
								l-0.1,0.8c-0.2-0.1-0.3-0.2-0.5-0.2s-0.3-0.1-0.5-0.1c-0.2,0-0.4,0-0.5,0.1c-0.1,0.1-0.3,0.2-0.4,0.3
								c-0.1,0.1-0.2,0.2-0.2,0.4c-0.1,0.2-0.1,0.3-0.1,0.5c0,0.2,0,0.4,0.1,0.5c0.1,0.2,0.2,0.3,0.3,0.4c0.1,0.1,0.3,0.2,0.4,0.2
								c0.2,0.1,0.3,0.1,0.5,0.1c0.2,0,0.3,0,0.5-0.1c0.2,0,0.3-0.1,0.5-0.1L321.7,51.6z"/>
						</g>
						<g>
							<path class="st0" d="M322.5,47.7h1v3.9h-1V47.7z"/>
						</g>
						<g>
							<path class="st0" d="M325.8,47.7h1.3l1.5,3.9h-1.1l-0.3-0.8h-1.5l-0.3,0.8h-1.1L325.8,47.7z M326.4,48.6L326.4,48.6l-0.5,1.5
								h1L326.4,48.6z"/>
						</g>
						<g>
							<path class="st0" d="M329.3,47.7h1v3.1h1.6v0.8h-2.7V47.7z"/>
						</g>
					</g>
					<g>
						<g>
							<path class="st0" d="M302.9,54.4h1v3.1h1.6v0.8h-2.7V54.4z"/>
						</g>
						<g>
							<path class="st0" d="M306.3,54.4h1v3.9h-1V54.4z"/>
						</g>
						<g>
							<path class="st0" d="M311.6,58.2c-0.1,0-0.3,0.1-0.5,0.1c-0.2,0-0.4,0.1-0.7,0.1c-0.3,0-0.5,0-0.8-0.1
								c-0.3-0.1-0.5-0.2-0.7-0.3c-0.2-0.2-0.4-0.4-0.5-0.6c-0.1-0.3-0.2-0.6-0.2-0.9c0-0.3,0.1-0.6,0.2-0.9
								c0.1-0.3,0.3-0.5,0.5-0.6c0.2-0.2,0.4-0.3,0.7-0.4c0.3-0.1,0.6-0.1,0.9-0.1c0.2,0,0.4,0,0.6,0.1c0.2,0,0.4,0.1,0.6,0.1
								l-0.1,0.8c-0.2-0.1-0.3-0.2-0.5-0.2c-0.2,0-0.3-0.1-0.5-0.1c-0.2,0-0.4,0-0.5,0.1c-0.1,0.1-0.3,0.2-0.4,0.3
								c-0.1,0.1-0.2,0.2-0.2,0.4c-0.1,0.2-0.1,0.3-0.1,0.5c0,0.2,0,0.4,0.1,0.5c0.1,0.2,0.2,0.3,0.3,0.4c0.1,0.1,0.3,0.2,0.4,0.2
								c0.2,0.1,0.3,0.1,0.5,0.1c0.2,0,0.3,0,0.5-0.1c0.2,0,0.3-0.1,0.5-0.1L311.6,58.2z"/>
						</g>
						<g>
							<path class="st0" d="M312.4,54.4h2.8v0.7h-1.7v0.8h1.6v0.7h-1.6v0.9h1.8v0.7h-2.8V54.4z"/>
						</g>
						<g>
							<path class="st0" d="M316.1,54.4h1.3l1.3,2.7h0l0-2.7h1v3.9h-1.3l-1.4-2.7h0l0,2.7h-1V54.4z"/>
						</g>
						<g>
							<path class="st0" d="M320.7,57.3c0.1,0.1,0.3,0.1,0.5,0.2c0.2,0,0.4,0.1,0.6,0.1c0.1,0,0.2,0,0.2,0c0.1,0,0.1,0,0.2-0.1
								c0.1,0,0.1-0.1,0.1-0.1c0-0.1,0.1-0.1,0.1-0.2c0-0.1,0-0.2-0.1-0.3c-0.1-0.1-0.2-0.1-0.3-0.2c-0.1,0-0.3-0.1-0.4-0.1
								c-0.2,0-0.3-0.1-0.4-0.2c-0.1-0.1-0.3-0.2-0.3-0.3c-0.1-0.1-0.1-0.3-0.1-0.6c0-0.2,0.1-0.4,0.2-0.6c0.1-0.2,0.2-0.3,0.4-0.4
								c0.2-0.1,0.3-0.2,0.5-0.2c0.2,0,0.4-0.1,0.6-0.1c0.2,0,0.4,0,0.5,0c0.2,0,0.3,0.1,0.5,0.1l-0.1,0.8c-0.1-0.1-0.3-0.1-0.4-0.1
								c-0.1,0-0.3,0-0.4,0c-0.1,0-0.1,0-0.2,0c-0.1,0-0.2,0-0.2,0c-0.1,0-0.1,0.1-0.2,0.1c0,0-0.1,0.1-0.1,0.2c0,0.1,0,0.2,0.1,0.2
								c0.1,0.1,0.2,0.1,0.3,0.1c0.1,0,0.3,0.1,0.4,0.1c0.2,0,0.3,0.1,0.4,0.2c0.1,0.1,0.3,0.2,0.3,0.3c0.1,0.1,0.1,0.3,0.1,0.6
								c0,0.3,0,0.5-0.1,0.6c-0.1,0.2-0.2,0.3-0.4,0.4c-0.2,0.1-0.3,0.2-0.6,0.2c-0.2,0-0.4,0.1-0.6,0.1c-0.2,0-0.4,0-0.6,0
								c-0.2,0-0.4-0.1-0.6-0.1L320.7,57.3z"/>
						</g>
						<g>
							<path class="st0" d="M324.4,54.4h2.8v0.7h-1.7v0.8h1.6v0.7h-1.6v0.9h1.8v0.7h-2.8V54.4z"/>
						</g>
						<g>
							<path class="st0" d="M329.2,57.5h0.4c0.4,0,0.7-0.1,0.9-0.3c0.2-0.2,0.3-0.5,0.3-0.9c0-0.4-0.1-0.7-0.3-0.9
								c-0.2-0.2-0.5-0.3-0.9-0.3h-0.4V57.5z M328.1,54.4h1.4c0.3,0,0.7,0,0.9,0.1c0.3,0.1,0.5,0.2,0.7,0.3c0.2,0.1,0.4,0.3,0.5,0.6
								c0.1,0.3,0.2,0.6,0.2,0.9c0,0.4-0.1,0.7-0.2,0.9c-0.1,0.2-0.3,0.5-0.5,0.6c-0.2,0.2-0.4,0.3-0.7,0.3
								c-0.3,0.1-0.6,0.1-0.9,0.1h-1.4V54.4z"/>
						</g>
					</g>
					<g>
						<g>
							<path class="st0" d="M300.5,61h1.2c0.6,0,1,0.1,1.3,0.3c0.3,0.2,0.4,0.5,0.4,1c0,0.4-0.1,0.7-0.4,0.9
								c-0.3,0.2-0.7,0.3-1.1,0.3h-0.4v1.4h-1V61z M301.5,62.8h0.3c0.1,0,0.2,0,0.3,0c0.1,0,0.1,0,0.2-0.1c0.1,0,0.1-0.1,0.1-0.2
								c0-0.1,0.1-0.2,0.1-0.3c0-0.1,0-0.2-0.1-0.3c0-0.1-0.1-0.1-0.1-0.2c-0.1,0-0.1-0.1-0.2-0.1c-0.1,0-0.2,0-0.3,0h-0.3V62.8z"/>
						</g>
						<g>
							<path class="st0" d="M304.2,61h1.9c0.2,0,0.3,0,0.5,0.1c0.2,0,0.3,0.1,0.4,0.2c0.1,0.1,0.2,0.2,0.3,0.3
								c0.1,0.1,0.1,0.3,0.1,0.4c0,0.3-0.1,0.5-0.2,0.6c-0.1,0.2-0.3,0.3-0.6,0.3v0c0.1,0,0.1,0.1,0.2,0.1c0.1,0,0.1,0.1,0.1,0.2
								c0,0.1,0.1,0.2,0.1,0.3c0,0.1,0.1,0.2,0.1,0.3l0.4,1.1h-1.1l-0.2-0.7c-0.1-0.2-0.1-0.3-0.1-0.4c0-0.1-0.1-0.2-0.2-0.3
								c-0.1-0.1-0.1-0.1-0.2-0.1c-0.1,0-0.2,0-0.2,0h-0.2v1.5h-1V61z M305.2,62.6h0.3c0.1,0,0.2,0,0.3,0c0.1,0,0.2,0,0.2-0.1
								c0.1,0,0.1-0.1,0.2-0.1c0-0.1,0.1-0.1,0.1-0.3c0-0.1,0-0.2-0.1-0.2c0-0.1-0.1-0.1-0.2-0.1c-0.1,0-0.1-0.1-0.2-0.1
								c-0.1,0-0.2,0-0.3,0h-0.3V62.6z"/>
						</g>
						<g>
							<path class="st0" d="M308.1,63c0-0.3,0-0.6,0.1-0.8c0.1-0.3,0.2-0.5,0.4-0.6c0.2-0.2,0.4-0.3,0.6-0.4
								c0.2-0.1,0.5-0.1,0.8-0.1c0.3,0,0.6,0,0.8,0.1c0.2,0.1,0.4,0.2,0.6,0.4c0.2,0.2,0.3,0.4,0.4,0.6c0.1,0.2,0.1,0.5,0.1,0.8
								c0,0.3,0,0.6-0.1,0.8c-0.1,0.3-0.2,0.5-0.4,0.6c-0.2,0.2-0.4,0.3-0.6,0.4c-0.2,0.1-0.5,0.1-0.8,0.1c-0.3,0-0.6,0-0.8-0.1
								c-0.2-0.1-0.4-0.2-0.6-0.4c-0.2-0.2-0.3-0.4-0.4-0.6C308.1,63.5,308.1,63.3,308.1,63z M309.1,63c0,0.2,0,0.3,0.1,0.5
								c0,0.2,0.1,0.3,0.2,0.4c0.1,0.1,0.2,0.2,0.3,0.3c0.1,0.1,0.2,0.1,0.4,0.1c0.2,0,0.3,0,0.4-0.1c0.1-0.1,0.2-0.2,0.3-0.3
								c0.1-0.1,0.1-0.2,0.2-0.4c0-0.2,0.1-0.3,0.1-0.5c0-0.2,0-0.3-0.1-0.5c0-0.2-0.1-0.3-0.2-0.4c-0.1-0.1-0.2-0.2-0.3-0.3
								c-0.1-0.1-0.2-0.1-0.4-0.1c-0.2,0-0.3,0-0.4,0.1c-0.1,0.1-0.2,0.2-0.3,0.3c-0.1,0.1-0.1,0.2-0.2,0.4
								C309.2,62.6,309.1,62.8,309.1,63z"/>
						</g>
						<g>
							<path class="st0" d="M312.9,61h1.4c0.3,0,0.7,0,0.9,0.1c0.3,0.1,0.5,0.2,0.7,0.3c0.2,0.1,0.4,0.3,0.5,0.6
								c0.1,0.3,0.2,0.6,0.2,0.9c0,0.4-0.1,0.7-0.2,0.9c-0.1,0.2-0.3,0.5-0.5,0.6c-0.2,0.2-0.4,0.3-0.7,0.3s-0.6,0.1-0.9,0.1h-1.4
								V61z M313.9,64.1h0.4c0.4,0,0.7-0.1,0.9-0.3c0.2-0.2,0.3-0.5,0.3-0.9c0-0.4-0.1-0.7-0.3-0.9c-0.2-0.2-0.5-0.3-0.9-0.3h-0.4
								V64.1z"/>
						</g>
						<g>
							<path class="st0" d="M320.9,63.4c0,0.3,0,0.5-0.1,0.7c-0.1,0.2-0.2,0.4-0.3,0.5c-0.2,0.1-0.3,0.2-0.5,0.3
								c-0.2,0.1-0.4,0.1-0.7,0.1c-0.3,0-0.5,0-0.7-0.1c-0.2-0.1-0.4-0.2-0.5-0.3c-0.2-0.1-0.3-0.3-0.3-0.5
								c-0.1-0.2-0.1-0.4-0.1-0.7V61h1v2.2c0,0.1,0,0.3,0,0.4c0,0.1,0.1,0.2,0.1,0.3c0.1,0.1,0.1,0.2,0.2,0.2
								c0.1,0.1,0.2,0.1,0.3,0.1c0.1,0,0.2,0,0.3-0.1c0.1-0.1,0.2-0.1,0.2-0.2c0.1-0.1,0.1-0.2,0.1-0.3c0-0.1,0-0.2,0-0.4V61h1V63.4
								z"/>
						</g>
						<g>
							<path class="st0" d="M325.1,64.8c-0.1,0-0.3,0.1-0.5,0.1c-0.2,0-0.4,0.1-0.7,0.1c-0.3,0-0.5,0-0.8-0.1
								c-0.3-0.1-0.5-0.2-0.7-0.3c-0.2-0.2-0.4-0.4-0.5-0.6c-0.1-0.3-0.2-0.6-0.2-0.9c0-0.3,0.1-0.6,0.2-0.9
								c0.1-0.3,0.3-0.5,0.5-0.6c0.2-0.2,0.4-0.3,0.7-0.4c0.3-0.1,0.6-0.1,0.9-0.1c0.2,0,0.4,0,0.6,0.1c0.2,0,0.4,0.1,0.6,0.1
								L325,62c-0.2-0.1-0.3-0.2-0.5-0.2s-0.3-0.1-0.5-0.1c-0.2,0-0.4,0-0.5,0.1c-0.1,0.1-0.3,0.2-0.4,0.3c-0.1,0.1-0.2,0.2-0.2,0.4
								c-0.1,0.2-0.1,0.3-0.1,0.5c0,0.2,0,0.4,0.1,0.5c0.1,0.2,0.2,0.3,0.3,0.4c0.1,0.1,0.3,0.2,0.4,0.2c0.2,0.1,0.3,0.1,0.5,0.1
								c0.2,0,0.3,0,0.5-0.1c0.2,0,0.3-0.1,0.5-0.1L325.1,64.8z"/>
						</g>
						<g>
							<path class="st0" d="M326.5,61.8h-1V61h3v0.8h-1v3.1h-1V61.8z"/>
						</g>
					</g>
				</g>
			</g>
		</g>
	</g>
	<g>
		<g>
			<path class="st0" d="M209.5,23.1h-10.3c-6.1,0-10.7,4.5-10.7,10.7v37.9h11.7V35.5c0-1.2,0.8-2.8,2.8-2.8h2.8
				c1.9,0,2.8,1.2,2.8,2.8v10h-6.2v9.6h6.2v16.5h11.7V33.8C220.2,27.7,215.6,23.1,209.5,23.1z"/>
		</g>
	</g>
	<path class="st0" d="M154.7,33.9v37.8h11.8V52.3h13.2v-9.7h-13.2v-6.9c0-1.2,0.8-2.8,2.8-2.8h15.3v-9.7h-19.1
		C159.3,23.1,154.7,27.7,154.7,33.9z"/>
	<rect x="138.3" y="23.1" class="st0" width="11.8" height="48.6"/>
	<path class="st0" d="M104.2,33.9v37.8H116V52.3h13.2v-9.7H116v-6.9c0-1.2,0.8-2.8,2.8-2.8h15.3v-9.7H115
		C108.8,23.1,104.2,27.7,104.2,33.9z"/>
	<g>
		<path class="st0" d="M235.3,23.1h-7.2v9.6h3.4c1.9,0,2.8,1.5,2.8,2.8v36.2H246V33.8C246,27.7,241.4,23.1,235.3,23.1z"/>
	</g>
	<path class="st0" d="M280.7,26.2c-0.9-0.9-2-1.7-3.3-2.2c-1.3-0.6-2.6-0.8-4.1-0.8h-10.6c-1.5,0-2.9,0.3-4.2,0.8
		c-1.3,0.6-2.4,1.3-3.4,2.3c-1,1-1.7,2.1-2.3,3.4c-0.6,1.3-0.8,2.7-0.8,4.2v11.1c0,3.1,0.9,5.5,2.8,7.4c1.9,1.9,4.3,2.8,7.3,2.8h5.7
		l-7.2,16.7H272c0,0,7.6-16.5,9.6-21.5c2-5,1.7-11.8,1.7-16.4C283.3,28.8,281.6,27.1,280.7,26.2z M272,43.1c0,1.2-1,2.2-2.2,2.2
		h-3.9c-1.2,0-2.2-1-2.2-2.2v-8c0-1.2,1-2.2,2.2-2.2h3.9c1.2,0,2.2,1,2.2,2.2V43.1z"/>
	<g>
		<path class="st0" d="M47.2,0C21.2,0,0,21.2,0,47.2c0,26,21.2,47.2,47.2,47.2c26,0,47.2-21.2,47.2-47.2C94.3,21.2,73.2,0,47.2,0z
			 M47.2,87.8c-22.4,0-40.6-18.2-40.6-40.6c0-22.4,18.2-40.6,40.6-40.6c22.4,0,40.6,18.2,40.6,40.6C87.8,69.6,69.6,87.8,47.2,87.8z"
			/>
		<polygon class="st0" points="78.2,55 78.7,55 78.7,56 78.9,56 78.9,55 79.4,55 79.4,54.8 78.2,54.8 		"/>
		<path class="st0" d="M21.9,59.5h-2.7c-0.6,0-0.9-0.3-0.9-1v-1.1c0-0.3,0.1-0.6,0.3-0.8c0.2-0.2,0.4-0.3,0.7-0.3h2.1
			c0.5,0,0.8,0.2,1,0.7l0.3,1h2V57c0-0.8-0.3-1.4-0.8-1.9c-0.5-0.5-1.2-0.8-1.9-0.8h-3.2c-0.7,0-1.4,0.3-1.9,0.8
			c-0.5,0.5-0.8,1.2-0.8,1.9v1.8c0,0.8,0.3,1.4,0.8,1.9c0.5,0.5,1.2,0.8,1.9,0.8h2.7c0.6,0,0.9,0.3,0.9,1V64c0,0.3-0.1,0.6-0.2,0.7
			C22,64.9,21.8,65,21.5,65h-2.2c-0.5,0-0.9-0.2-1-0.7L18,63.1h-2v1.3c0,0.8,0.3,1.4,0.8,1.9c0.5,0.5,1.1,0.8,1.9,0.8h3.2
			c0.7,0,1.4-0.3,1.9-0.8c0.5-0.5,0.8-1.2,0.8-1.9v-2.2c0-0.7-0.3-1.4-0.8-1.9C23.3,59.8,22.7,59.5,21.9,59.5z"/>
		<path class="st0" d="M33,54.3h-5.8v12.7h2.2v-4.7H33c0.7,0,1.4-0.3,1.9-0.8c0.5-0.5,0.8-1.2,0.8-1.9V57c0-0.7-0.3-1.4-0.8-1.9
			C34.4,54.6,33.8,54.3,33,54.3z M33.5,59.3c0,0.3-0.1,0.6-0.3,0.8c-0.2,0.2-0.4,0.3-0.6,0.3h-3.1v-4h3.1c0.3,0,0.5,0.1,0.6,0.3
			c0.2,0.2,0.3,0.4,0.3,0.8V59.3z"/>
		<path class="st0" d="M57.1,60.8c0.3-0.5,0.5-1,0.5-1.6V57c0-0.7-0.3-1.4-0.8-1.9c-0.5-0.5-1.2-0.8-1.9-0.8h-5.6v12.7h2.3v-5h2.1
			l2.1,5h2.4l-2.2-5.3C56.4,61.6,56.8,61.3,57.1,60.8z M55.4,59c0,0.3-0.1,0.6-0.2,0.7c-0.2,0.2-0.4,0.3-0.6,0.3h-2.9v-3.6h2.9
			c0.3,0,0.5,0.1,0.6,0.3c0.2,0.2,0.2,0.4,0.2,0.8V59z"/>
		<polygon class="st0" points="59,56.4 62.3,56.4 62.3,67.1 64.5,67.1 64.5,56.4 67.8,56.4 67.8,54.3 59,54.3 		"/>
		<path class="st0" d="M75.3,59.5h-2.7c-0.6,0-0.9-0.3-0.9-1v-1.1c0-0.3,0.1-0.6,0.2-0.8c0.2-0.2,0.4-0.3,0.7-0.3h2.1
			c0.5,0,0.8,0.2,1,0.7l0.3,1h2V57c0-0.8-0.3-1.4-0.8-1.9c-0.5-0.5-1.1-0.8-1.9-0.8h-3.1c-0.7,0-1.4,0.3-1.9,0.8
			c-0.5,0.5-0.8,1.2-0.8,1.9v1.8c0,0.8,0.3,1.4,0.8,1.9c0.5,0.5,1.2,0.8,1.9,0.8h2.7c0.6,0,0.9,0.3,0.9,1V64c0,0.3-0.1,0.6-0.2,0.7
			c-0.2,0.2-0.4,0.3-0.7,0.3h-2.2c-0.5,0-0.9-0.2-1-0.7l-0.3-1.2h-2v1.3c0,0.8,0.3,1.4,0.8,1.9c0.5,0.5,1.1,0.8,1.9,0.8h3.2
			c0.8,0,1.4-0.3,1.9-0.8c0.5-0.5,0.8-1.2,0.8-1.9v-2.2c0-0.7-0.3-1.4-0.8-1.9C76.7,59.8,76,59.5,75.3,59.5z"/>
		<g>
			<polygon class="st0" points="53.8,21.8 29.5,21.8 25.8,27.7 50.1,27.7 			"/>
			<polygon class="st0" points="63,39.5 59.3,39.5 55.6,45.4 66.7,45.4 70.4,51.3 77.5,51.3 58.7,21.6 43.7,45.4 27.2,45.4 31,39.5 
				41.2,39.5 44.9,33.6 22.1,33.6 18.4,39.5 23.9,39.5 16.4,51.3 47.1,51.3 58.7,32.8 			"/>
			<path class="st0" d="M80.8,54.8l-0.5,0.7l-0.5-0.7h-0.2V56h0.2v-0.8c0,0,0-0.1,0-0.1c0,0,0.1,0.1,0.1,0.1l0.4,0.6h0l0.4-0.6
				c0,0,0-0.1,0.1-0.1c0,0.1,0,0.1,0,0.1V56H81v-1.2H80.8z"/>
			<path class="st0" d="M43.8,54.3h-3c-0.8,0-1.4,0.3-1.9,0.8C38.3,55.6,38,56.3,38,57v7.3c0,0.8,0.3,1.4,0.8,1.9
				c0.5,0.5,1.2,0.8,1.9,0.8h3c0.8,0,1.4-0.3,1.9-0.8c0.5-0.5,0.8-1.2,0.8-1.9V57c0-0.7-0.3-1.4-0.8-1.9
				C45.2,54.6,44.6,54.3,43.8,54.3z M44.3,64c0,0.3-0.1,0.5-0.3,0.7c-0.2,0.2-0.4,0.3-0.6,0.3h-2.2c-0.3,0-0.5-0.1-0.7-0.3
				c-0.2-0.2-0.2-0.4-0.2-0.7v-6.5c0-0.3,0.1-0.6,0.2-0.8c0.2-0.2,0.4-0.3,0.7-0.3h2.2c0.3,0,0.5,0.1,0.6,0.3
				c0.2,0.2,0.3,0.4,0.3,0.8V64z"/>
		</g>
	</g>
</g>
</svg>
