<?xml version="1.0" encoding="utf-8"?>
<!-- Generator: Adobe Illustrator 22.0.1, SVG Export Plug-In . SVG Version: 6.00 Build 0)  -->
<svg version="1.1" id="LOGOS" xmlns="http://www.w3.org/2000/svg" xmlns:xlink="http://www.w3.org/1999/xlink" x="0px" y="0px"
	 viewBox="0 0 183 108.4" style="enable-background:new 0 0 183 108.4;" xml:space="preserve">
<style type="text/css">
	.st0{fill:#FFFFFF;}
</style>
<g>
	<g>
		<path class="st0" d="M86.1,0c-18.7,0-34,15.2-34,34c0,18.7,15.2,34,34,34c18.7,0,34-15.2,34-34C120,15.2,104.8,0,86.1,0z
			 M86.1,63.2c-16.2,0-29.2-13.1-29.2-29.2c0-16.2,13.1-29.2,29.2-29.2s29.2,13.1,29.2,29.2C115.3,50.1,102.2,63.2,86.1,63.2z"/>
		<polygon class="st0" points="108.4,39.6 108.8,39.6 108.8,40.3 108.9,40.3 108.9,39.6 109.3,39.6 109.3,39.4 108.4,39.4 		"/>
		<path class="st0" d="M67.9,42.8h-2c-0.4,0-0.7-0.2-0.7-0.7v-0.8c0-0.2,0.1-0.4,0.2-0.5c0.1-0.1,0.3-0.2,0.5-0.2h1.5
			c0.4,0,0.6,0.2,0.7,0.5l0.2,0.7h1.4V41c0-0.5-0.2-1-0.6-1.4c-0.4-0.4-0.8-0.5-1.4-0.5h-2.3c-0.5,0-1,0.2-1.4,0.6
			c-0.4,0.4-0.6,0.8-0.6,1.4v1.3c0,0.5,0.2,1,0.6,1.4c0.4,0.4,0.9,0.6,1.4,0.6h2c0.4,0,0.6,0.3,0.6,0.7v1c0,0.2-0.1,0.4-0.2,0.5
			c-0.1,0.1-0.3,0.2-0.5,0.2h-1.6c-0.4,0-0.6-0.2-0.7-0.5l-0.2-0.8h-1.4v0.9c0,0.6,0.2,1,0.5,1.4c0.4,0.4,0.8,0.5,1.4,0.5h2.3
			c0.5,0,1-0.2,1.4-0.6c0.4-0.4,0.6-0.8,0.6-1.4v-1.6c0-0.5-0.2-1-0.6-1.4C68.9,43,68.5,42.8,67.9,42.8z"/>
		<path class="st0" d="M75.9,39.1h-4.1v9.2h1.6v-3.4h2.5c0.5,0,1-0.2,1.4-0.6c0.4-0.4,0.6-0.8,0.6-1.4v-1.9c0-0.5-0.2-1-0.6-1.4
			C76.9,39.3,76.4,39.1,75.9,39.1z M76.2,42.7c0,0.2-0.1,0.4-0.2,0.5c-0.1,0.1-0.3,0.2-0.5,0.2h-2.2v-2.8h2.2c0.2,0,0.3,0.1,0.5,0.2
			c0.1,0.1,0.2,0.3,0.2,0.5V42.7z"/>
		<path class="st0" d="M93.3,43.8c0.2-0.3,0.3-0.7,0.3-1.1v-1.6c0-0.5-0.2-1-0.6-1.4c-0.4-0.4-0.8-0.6-1.4-0.6h-4.1v9.2h1.6v-3.6
			h1.5l1.5,3.6H94l-1.6-3.8C92.7,44.3,93,44.1,93.3,43.8z M92,42.5c0,0.2-0.1,0.4-0.2,0.5c-0.1,0.1-0.3,0.2-0.5,0.2h-2.1v-2.6h2.1
			c0.2,0,0.3,0.1,0.5,0.2c0.1,0.1,0.2,0.3,0.2,0.5V42.5z"/>
		<polygon class="st0" points="94.6,40.6 97,40.6 97,48.3 98.6,48.3 98.6,40.6 100.9,40.6 100.9,39.1 94.6,39.1 		"/>
		<path class="st0" d="M106.3,42.8h-2c-0.4,0-0.7-0.2-0.7-0.7v-0.8c0-0.2,0.1-0.4,0.2-0.5c0.1-0.1,0.3-0.2,0.5-0.2h1.5
			c0.4,0,0.6,0.2,0.7,0.5l0.2,0.7h1.4V41c0-0.5-0.2-1-0.6-1.4c-0.4-0.4-0.8-0.5-1.4-0.5h-2.3c-0.5,0-1,0.2-1.4,0.6
			c-0.4,0.4-0.6,0.8-0.6,1.4v1.3c0,0.5,0.2,1,0.6,1.4c0.4,0.4,0.8,0.6,1.4,0.6h2c0.4,0,0.7,0.3,0.7,0.7v1c0,0.2-0.1,0.4-0.2,0.5
			c-0.1,0.1-0.3,0.2-0.5,0.2h-1.6c-0.4,0-0.6-0.2-0.7-0.5l-0.2-0.8h-1.4v0.9c0,0.6,0.2,1,0.6,1.4c0.4,0.4,0.8,0.5,1.4,0.5h2.3
			c0.5,0,1-0.2,1.4-0.6c0.4-0.4,0.6-0.8,0.6-1.4v-1.6c0-0.5-0.2-1-0.6-1.4C107.3,43,106.9,42.8,106.3,42.8z"/>
		<g>
			<polygon class="st0" points="90.9,15.7 73.4,15.7 70.7,20 88.2,19.9 			"/>
			<polygon class="st0" points="97.5,28.4 94.9,28.4 92.2,32.7 100.2,32.7 102.8,36.9 107.9,36.9 94.4,15.6 83.6,32.7 71.7,32.7 
				74.4,28.4 81.8,28.4 84.5,24.2 68.1,24.2 65.4,28.4 69.3,28.4 63.9,36.9 86,36.9 94.4,23.6 			"/>
			<path class="st0" d="M110.3,39.4L110,40l-0.3-0.5h-0.1v0.9h0.1v-0.5c0,0,0-0.1,0-0.1c0,0,0,0.1,0.1,0.1l0.3,0.4h0l0.3-0.4
				c0,0,0-0.1,0-0.1c0,0,0,0.1,0,0.1v0.5h0.2v-0.9H110.3z"/>
			<path class="st0" d="M83.7,39.1h-2.2c-0.5,0-1,0.2-1.4,0.6c-0.4,0.4-0.6,0.8-0.6,1.4v5.3c0,0.6,0.2,1,0.6,1.4
				c0.4,0.4,0.8,0.6,1.4,0.6h2.2c0.5,0,1-0.2,1.4-0.6c0.4-0.4,0.6-0.8,0.6-1.4v-5.3c0-0.5-0.2-1-0.6-1.4
				C84.7,39.3,84.2,39.1,83.7,39.1z M84,46.1c0,0.2-0.1,0.4-0.2,0.5c-0.1,0.1-0.3,0.2-0.5,0.2h-1.6c-0.2,0-0.4-0.1-0.5-0.2
				c-0.1-0.1-0.2-0.3-0.2-0.5v-4.7c0-0.2,0.1-0.4,0.2-0.5c0.1-0.1,0.3-0.2,0.5-0.2h1.6c0.2,0,0.3,0.1,0.5,0.2C84,41,84,41.1,84,41.4
				V46.1z"/>
		</g>
	</g>
	<g>
		<g>
			<path class="st0" d="M75.8,73.4h-7.4c-4.4,0-7.7,3.3-7.7,7.7v27.3h8.4v-26c0-0.9,0.6-2,2-2h2c1.4,0,2,0.8,2,2v7.2h-4.5v6.9h4.5
				v11.9h8.4V81.1C83.5,76.7,80.2,73.4,75.8,73.4z"/>
		</g>
	</g>
	<path class="st0" d="M36.4,81.1v27.2h8.5v-14h9.5v-7h-9.5v-5c0-0.9,0.6-2,2-2h11v-7H44.1C39.7,73.4,36.4,76.7,36.4,81.1z"/>
	<rect x="24.5" y="73.4" class="st0" width="8.5" height="35"/>
	<path class="st0" d="M0,81.1v27.2h8.5v-14H18v-7H8.5v-5c0-0.9,0.6-2,2-2h11v-7H7.7C3.3,73.4,0,76.7,0,81.1z"/>
	<g>
		<path class="st0" d="M94.4,73.4h-5.2v6.9h2.4c1.4,0,2,1.1,2,2v26h8.4V81.1C102,76.7,98.8,73.4,94.4,73.4z"/>
	</g>
	<path class="st0" d="M127,75.6c-0.7-0.7-1.5-1.2-2.4-1.6c-0.9-0.4-1.9-0.6-2.9-0.6h-7.6c-1.1,0-2.1,0.2-3,0.6
		c-0.9,0.4-1.8,0.9-2.5,1.6c-0.7,0.7-1.3,1.5-1.7,2.4c-0.4,0.9-0.6,1.9-0.6,3v8c0,2.2,0.7,4,2,5.3c1.3,1.3,3.1,2,5.2,2h4.1l-5.2,12
		h8.2c0,0,5.4-11.9,6.9-15.5c1.5-3.6,1.2-8.5,1.2-11.8C128.9,77.5,127.7,76.2,127,75.6z M120.8,87.7c0,0.9-0.7,1.6-1.6,1.6h-2.8
		c-0.9,0-1.6-0.7-1.6-1.6V82c0-0.9,0.7-1.6,1.6-1.6h2.8c0.9,0,1.6,0.7,1.6,1.6V87.7z"/>
	<g>
		<g>
			<g>
				<path class="st0" d="M147.4,64.5l-16,43.9H167l16-43.9L147.4,64.5L147.4,64.5z M166.8,108H132l7.8-21.4h34.8L166.8,108z
					 M139.9,86.2l7.8-21.4h34.8l-7.8,21.4H139.9z"/>
			</g>
			<g>
				<g>
					<g>
						<polygon class="st0" points="149.3,71.4 149.3,79.5 151.8,79.5 151.8,76.6 153.7,76.6 154.3,74.8 151.8,74.8 151.8,73.2 
							154.9,73.2 155.6,71.4 						"/>
					</g>
					<g>
						<rect x="156.3" y="71.4" class="st0" width="2.5" height="8.2"/>
					</g>
					<g>
						<polygon class="st0" points="160.6,71.4 160.6,79.5 163.2,79.5 163.2,76.6 165,76.6 165.6,74.8 163.2,74.8 163.2,73.2 
							166.2,73.2 166.9,71.4 						"/>
					</g>
					<g>
						<path class="st0" d="M174.1,79.5h-2.6l-0.3-1.1h-2.9l-0.3,1.1h-2.5l3-8.2h2.6L174.1,79.5z M170.8,76.9l-1-3.4l-1,3.4H170.8z"
							/>
					</g>
				</g>
				<g>
					<path class="st0" d="M173.1,73c-0.1,0-0.2,0-0.3-0.1c-0.1,0-0.2-0.1-0.3-0.2c-0.1-0.1-0.1-0.2-0.2-0.3c0-0.1-0.1-0.2-0.1-0.3
						c0-0.1,0-0.2,0.1-0.3c0-0.1,0.1-0.2,0.2-0.3c0.1-0.1,0.2-0.1,0.3-0.2c0.1,0,0.2-0.1,0.3-0.1c0.1,0,0.2,0,0.3,0.1
						c0.1,0,0.2,0.1,0.3,0.2c0.1,0.1,0.1,0.2,0.2,0.3c0,0.1,0.1,0.2,0.1,0.3c0,0.1,0,0.2-0.1,0.3c0,0.1-0.1,0.2-0.2,0.3
						c-0.1,0.1-0.2,0.1-0.3,0.2C173.4,73,173.3,73,173.1,73z M173.1,72.9c0.1,0,0.2,0,0.2,0c0.1,0,0.1-0.1,0.2-0.1
						c0.1-0.1,0.1-0.1,0.1-0.2c0-0.1,0-0.2,0-0.3c0-0.1,0-0.2,0-0.3c0-0.1-0.1-0.1-0.1-0.2c-0.1-0.1-0.1-0.1-0.2-0.1
						c-0.1,0-0.2,0-0.2,0c-0.1,0-0.2,0-0.2,0c-0.1,0-0.1,0.1-0.2,0.1c-0.1,0.1-0.1,0.1-0.1,0.2c0,0.1,0,0.2,0,0.3c0,0.1,0,0.2,0,0.3
						s0.1,0.2,0.1,0.2c0.1,0.1,0.1,0.1,0.2,0.1C173,72.8,173.1,72.9,173.1,72.9z M172.8,71.7h0.3c0.1,0,0.2,0,0.3,0.1
						c0.1,0,0.1,0.1,0.1,0.2c0,0.1,0,0.1-0.1,0.2c0,0-0.1,0.1-0.2,0.1l0.2,0.4h-0.2l-0.2-0.4H173v0.4h-0.2L172.8,71.7L172.8,71.7z
						 M173,72.1h0.2c0,0,0,0,0.1,0c0,0,0,0,0.1,0c0,0,0,0,0,0c0,0,0,0,0-0.1c0,0,0,0,0-0.1c0,0,0,0,0,0c0,0,0,0-0.1,0s0,0-0.1,0H173
						V72.1z"/>
				</g>
			</g>
			<g>
				<g>
					<g>
						<path class="st0" d="M144.4,92.5c0-0.2,0-0.4,0.1-0.6c0.1-0.2,0.1-0.3,0.3-0.5c0.1-0.1,0.3-0.2,0.4-0.3
							c0.2-0.1,0.4-0.1,0.6-0.1c0.2,0,0.4,0,0.6,0.1c0.2,0.1,0.3,0.2,0.4,0.3c0.1,0.1,0.2,0.3,0.3,0.5c0.1,0.2,0.1,0.4,0.1,0.6
							c0,0.2,0,0.4-0.1,0.6c-0.1,0.2-0.1,0.3-0.3,0.5c-0.1,0.1-0.3,0.2-0.4,0.3c-0.2,0.1-0.4,0.1-0.6,0.1c-0.2,0-0.4,0-0.6-0.1
							c-0.2-0.1-0.3-0.2-0.4-0.3c-0.1-0.1-0.2-0.3-0.3-0.5C144.4,93,144.4,92.8,144.4,92.5z M145.1,92.5c0,0.1,0,0.2,0,0.3
							c0,0.1,0.1,0.2,0.1,0.3c0.1,0.1,0.1,0.1,0.2,0.2c0.1,0.1,0.2,0.1,0.3,0.1c0.1,0,0.2,0,0.3-0.1c0.1,0,0.1-0.1,0.2-0.2
							c0.1-0.1,0.1-0.2,0.1-0.3c0-0.1,0-0.2,0-0.3c0-0.1,0-0.2,0-0.3c0-0.1-0.1-0.2-0.1-0.3c-0.1-0.1-0.1-0.1-0.2-0.2
							c-0.1,0-0.2-0.1-0.3-0.1s-0.2,0-0.3,0.1c-0.1,0-0.1,0.1-0.2,0.2c-0.1,0.1-0.1,0.2-0.1,0.3C145.2,92.3,145.1,92.4,145.1,92.5z"
							/>
					</g>
					<g>
						<path class="st0" d="M147.8,91.1h1.9v0.5h-1.1v0.6h1.1v0.5h-1.1v1.1h-0.7L147.8,91.1L147.8,91.1z"/>
					</g>
					<g>
						<path class="st0" d="M150.2,91.1h1.9v0.5H151v0.6h1.1v0.5H151v1.1h-0.7V91.1z"/>
					</g>
					<g>
						<path class="st0" d="M152.7,91.1h0.7v2.8h-0.7V91.1z"/>
					</g>
					<g>
						<path class="st0" d="M156.6,93.9c-0.1,0-0.2,0.1-0.4,0.1c-0.1,0-0.3,0-0.5,0c-0.2,0-0.4,0-0.6-0.1c-0.2-0.1-0.4-0.1-0.5-0.2
							c-0.2-0.1-0.3-0.3-0.4-0.4c-0.1-0.2-0.1-0.4-0.1-0.7c0-0.2,0-0.5,0.1-0.6c0.1-0.2,0.2-0.3,0.3-0.5c0.1-0.1,0.3-0.2,0.5-0.3
							c0.2-0.1,0.4-0.1,0.6-0.1c0.1,0,0.3,0,0.4,0c0.1,0,0.3,0.1,0.4,0.1l-0.1,0.6c-0.1-0.1-0.2-0.1-0.4-0.1c-0.1,0-0.2,0-0.4,0
							c-0.1,0-0.3,0-0.4,0.1c-0.1,0-0.2,0.1-0.3,0.2c-0.1,0.1-0.1,0.2-0.2,0.3c0,0.1-0.1,0.2-0.1,0.4c0,0.1,0,0.3,0.1,0.4
							c0,0.1,0.1,0.2,0.2,0.3c0.1,0.1,0.2,0.1,0.3,0.2c0.1,0,0.2,0.1,0.4,0.1c0.1,0,0.2,0,0.4,0c0.1,0,0.2-0.1,0.3-0.1L156.6,93.9z"
							/>
					</g>
					<g>
						<path class="st0" d="M157.2,91.1h0.7v2.8h-0.7V91.1z"/>
					</g>
					<g>
						<path class="st0" d="M159.5,91.1h0.9l1.1,2.8h-0.8l-0.2-0.6h-1.1l-0.2,0.6h-0.8L159.5,91.1z M160,91.7L160,91.7l-0.4,1.1h0.7
							L160,91.7z"/>
					</g>
					<g>
						<path class="st0" d="M162,91.1h0.7v2.3h1.2v0.6H162V91.1z"/>
					</g>
				</g>
				<g>
					<g>
						<path class="st0" d="M143,95.9h0.7v2.3h1.2v0.6H143V95.9z"/>
					</g>
					<g>
						<path class="st0" d="M145.5,95.9h0.7v2.8h-0.7V95.9z"/>
					</g>
					<g>
						<path class="st0" d="M149.3,98.6c-0.1,0-0.2,0.1-0.4,0.1c-0.1,0-0.3,0-0.5,0c-0.2,0-0.4,0-0.6-0.1c-0.2-0.1-0.4-0.1-0.5-0.2
							c-0.2-0.1-0.3-0.3-0.4-0.4c-0.1-0.2-0.1-0.4-0.1-0.7c0-0.2,0-0.5,0.1-0.6c0.1-0.2,0.2-0.3,0.3-0.5c0.1-0.1,0.3-0.2,0.5-0.3
							c0.2-0.1,0.4-0.1,0.6-0.1c0.1,0,0.3,0,0.4,0c0.1,0,0.3,0.1,0.4,0.1l-0.1,0.6c-0.1-0.1-0.2-0.1-0.4-0.1c-0.1,0-0.2,0-0.4,0
							c-0.1,0-0.3,0-0.4,0.1c-0.1,0-0.2,0.1-0.3,0.2c-0.1,0.1-0.1,0.2-0.2,0.3c0,0.1-0.1,0.2-0.1,0.4c0,0.1,0,0.3,0.1,0.4
							c0,0.1,0.1,0.2,0.2,0.3c0.1,0.1,0.2,0.1,0.3,0.2c0.1,0,0.2,0.1,0.4,0.1c0.1,0,0.2,0,0.4,0c0.1,0,0.2-0.1,0.3-0.1L149.3,98.6z"
							/>
					</g>
					<g>
						<path class="st0" d="M149.9,95.9h2v0.5h-1.2V97h1.2v0.5h-1.2v0.6h1.3v0.5h-2L149.9,95.9L149.9,95.9z"/>
					</g>
					<g>
						<path class="st0" d="M152.6,95.9h1l1,1.9h0l0-1.9h0.7v2.8h-0.9l-1-1.9h0l0,1.9h-0.7V95.9z"/>
					</g>
					<g>
						<path class="st0" d="M155.9,98c0.1,0.1,0.2,0.1,0.3,0.1c0.1,0,0.3,0.1,0.4,0.1c0.1,0,0.1,0,0.2,0c0.1,0,0.1,0,0.1,0
							c0,0,0.1,0,0.1-0.1c0,0,0-0.1,0-0.1c0-0.1,0-0.2-0.1-0.2c-0.1,0-0.1-0.1-0.2-0.1c-0.1,0-0.2-0.1-0.3-0.1
							c-0.1,0-0.2-0.1-0.3-0.1c-0.1-0.1-0.2-0.1-0.2-0.2s-0.1-0.2-0.1-0.4c0-0.2,0-0.3,0.1-0.4c0.1-0.1,0.2-0.2,0.3-0.3
							c0.1-0.1,0.2-0.1,0.4-0.1c0.1,0,0.3,0,0.4,0c0.1,0,0.3,0,0.4,0s0.2,0,0.3,0.1l0,0.6c-0.1,0-0.2-0.1-0.3-0.1
							c-0.1,0-0.2,0-0.3,0c0,0-0.1,0-0.2,0c-0.1,0-0.1,0-0.2,0c-0.1,0-0.1,0-0.1,0.1c0,0-0.1,0.1-0.1,0.1c0,0.1,0,0.1,0.1,0.2
							s0.1,0.1,0.2,0.1c0.1,0,0.2,0.1,0.3,0.1c0.1,0,0.2,0.1,0.3,0.1c0.1,0.1,0.2,0.1,0.2,0.2c0.1,0.1,0.1,0.2,0.1,0.4
							c0,0.2,0,0.3-0.1,0.5c-0.1,0.1-0.2,0.2-0.3,0.3c-0.1,0.1-0.2,0.1-0.4,0.1c-0.1,0-0.3,0-0.5,0c-0.1,0-0.3,0-0.4,0
							c-0.1,0-0.3-0.1-0.4-0.1L155.9,98z"/>
					</g>
					<g>
						<path class="st0" d="M158.5,95.9h2v0.5h-1.2V97h1.2v0.5h-1.2v0.6h1.3v0.5h-2L158.5,95.9L158.5,95.9z"/>
					</g>
					<g>
						<path class="st0" d="M162,98.2h0.3c0.3,0,0.5-0.1,0.6-0.2c0.1-0.1,0.2-0.4,0.2-0.6s-0.1-0.5-0.2-0.6s-0.4-0.2-0.6-0.2H162
							V98.2z M161.2,95.9h1c0.2,0,0.5,0,0.7,0.1c0.2,0,0.4,0.1,0.5,0.2c0.1,0.1,0.3,0.2,0.3,0.4c0.1,0.2,0.1,0.4,0.1,0.7
							c0,0.3,0,0.5-0.1,0.7c-0.1,0.2-0.2,0.3-0.3,0.4c-0.1,0.1-0.3,0.2-0.5,0.2c-0.2,0-0.4,0.1-0.7,0.1h-1V95.9z"/>
					</g>
				</g>
				<g>
					<g>
						<path class="st0" d="M141.3,100.7h0.9c0.4,0,0.8,0.1,1,0.2c0.2,0.1,0.3,0.4,0.3,0.7c0,0.3-0.1,0.5-0.3,0.7
							c-0.2,0.2-0.5,0.2-0.8,0.2H142v1h-0.7L141.3,100.7L141.3,100.7z M142,102h0.2c0.1,0,0.1,0,0.2,0c0.1,0,0.1,0,0.1-0.1
							c0,0,0.1-0.1,0.1-0.1c0,0,0-0.1,0-0.2c0-0.1,0-0.1,0-0.2c0,0-0.1-0.1-0.1-0.1c0,0-0.1-0.1-0.1-0.1c-0.1,0-0.1,0-0.2,0H142V102
							z"/>
					</g>
					<g>
						<path class="st0" d="M144,100.7h1.3c0.1,0,0.2,0,0.4,0c0.1,0,0.2,0.1,0.3,0.1c0.1,0.1,0.1,0.1,0.2,0.2c0,0.1,0.1,0.2,0.1,0.3
							c0,0.2,0,0.3-0.1,0.5c-0.1,0.1-0.2,0.2-0.4,0.2v0c0.1,0,0.1,0,0.1,0.1c0,0,0.1,0.1,0.1,0.1c0,0.1,0.1,0.1,0.1,0.2
							c0,0.1,0.1,0.1,0.1,0.2l0.3,0.8h-0.8l-0.2-0.5c0-0.1-0.1-0.2-0.1-0.3c0-0.1-0.1-0.1-0.1-0.2c0,0-0.1-0.1-0.1-0.1
							c-0.1,0-0.1,0-0.2,0h-0.2v1.1H144L144,100.7L144,100.7z M144.7,101.8h0.2c0.1,0,0.1,0,0.2,0c0.1,0,0.1,0,0.2,0
							c0.1,0,0.1-0.1,0.1-0.1c0,0,0.1-0.1,0.1-0.2c0-0.1,0-0.1,0-0.2c0,0-0.1-0.1-0.1-0.1c0,0-0.1,0-0.2,0c-0.1,0-0.1,0-0.2,0h-0.2
							L144.7,101.8L144.7,101.8z"/>
					</g>
					<g>
						<path class="st0" d="M146.8,102.1c0-0.2,0-0.4,0.1-0.6c0.1-0.2,0.1-0.3,0.3-0.5c0.1-0.1,0.3-0.2,0.4-0.3
							c0.2-0.1,0.4-0.1,0.6-0.1c0.2,0,0.4,0,0.6,0.1c0.2,0.1,0.3,0.2,0.4,0.3c0.1,0.1,0.2,0.3,0.3,0.5c0.1,0.2,0.1,0.4,0.1,0.6
							c0,0.2,0,0.4-0.1,0.6c-0.1,0.2-0.1,0.3-0.3,0.5c-0.1,0.1-0.3,0.2-0.4,0.3c-0.2,0.1-0.4,0.1-0.6,0.1c-0.2,0-0.4,0-0.6-0.1
							c-0.2-0.1-0.3-0.2-0.4-0.3c-0.1-0.1-0.2-0.3-0.3-0.5C146.8,102.5,146.8,102.3,146.8,102.1z M147.5,102.1c0,0.1,0,0.2,0,0.3
							c0,0.1,0.1,0.2,0.1,0.3c0.1,0.1,0.1,0.1,0.2,0.2c0.1,0.1,0.2,0.1,0.3,0.1s0.2,0,0.3-0.1c0.1,0,0.1-0.1,0.2-0.2
							c0.1-0.1,0.1-0.2,0.1-0.3c0-0.1,0-0.2,0-0.3c0-0.1,0-0.2,0-0.3c0-0.1-0.1-0.2-0.1-0.3c-0.1-0.1-0.1-0.1-0.2-0.2
							c-0.1,0-0.2-0.1-0.3-0.1c-0.1,0-0.2,0-0.3,0.1c-0.1,0-0.1,0.1-0.2,0.2c-0.1,0.1-0.1,0.2-0.1,0.3
							C147.5,101.8,147.5,101.9,147.5,102.1z"/>
					</g>
					<g>
						<path class="st0" d="M150.2,100.7h1c0.2,0,0.5,0,0.7,0.1c0.2,0,0.4,0.1,0.5,0.2c0.1,0.1,0.3,0.2,0.3,0.4
							c0.1,0.2,0.1,0.4,0.1,0.7c0,0.3,0,0.5-0.1,0.7c-0.1,0.2-0.2,0.3-0.3,0.4c-0.1,0.1-0.3,0.2-0.5,0.2c-0.2,0-0.4,0.1-0.7,0.1h-1
							V100.7z M150.9,102.9h0.3c0.3,0,0.5-0.1,0.6-0.2c0.1-0.1,0.2-0.4,0.2-0.6s-0.1-0.5-0.2-0.6c-0.2-0.1-0.4-0.2-0.6-0.2h-0.3
							L150.9,102.9L150.9,102.9z"/>
					</g>
					<g>
						<path class="st0" d="M156,102.4c0,0.2,0,0.4-0.1,0.5c-0.1,0.1-0.1,0.3-0.3,0.3c-0.1,0.1-0.2,0.2-0.4,0.2
							c-0.2,0-0.3,0.1-0.5,0.1c-0.2,0-0.4,0-0.5-0.1c-0.2,0-0.3-0.1-0.4-0.2c-0.1-0.1-0.2-0.2-0.3-0.3c-0.1-0.1-0.1-0.3-0.1-0.5
							v-1.7h0.7v1.6c0,0.1,0,0.2,0,0.3c0,0.1,0,0.2,0.1,0.2c0,0.1,0.1,0.1,0.1,0.1c0.1,0,0.1,0.1,0.2,0.1c0.1,0,0.2,0,0.2-0.1
							c0.1,0,0.1-0.1,0.1-0.1c0-0.1,0.1-0.1,0.1-0.2c0-0.1,0-0.2,0-0.3v-1.6h0.7L156,102.4L156,102.4z"/>
					</g>
					<g>
						<path class="st0" d="M159,103.4c-0.1,0-0.2,0.1-0.4,0.1c-0.1,0-0.3,0-0.5,0c-0.2,0-0.4,0-0.6-0.1c-0.2-0.1-0.4-0.1-0.5-0.2
							c-0.2-0.1-0.3-0.3-0.4-0.4c-0.1-0.2-0.1-0.4-0.1-0.7c0-0.2,0-0.5,0.1-0.6c0.1-0.2,0.2-0.3,0.3-0.5c0.1-0.1,0.3-0.2,0.5-0.3
							c0.2-0.1,0.4-0.1,0.6-0.1c0.1,0,0.3,0,0.4,0c0.1,0,0.3,0.1,0.4,0.1l-0.1,0.6c-0.1-0.1-0.2-0.1-0.4-0.1c-0.1,0-0.2,0-0.4,0
							c-0.1,0-0.3,0-0.4,0.1c-0.1,0-0.2,0.1-0.3,0.2c-0.1,0.1-0.1,0.2-0.2,0.3c0,0.1-0.1,0.2-0.1,0.4c0,0.1,0,0.3,0.1,0.4
							c0,0.1,0.1,0.2,0.2,0.3s0.2,0.1,0.3,0.2c0.1,0,0.2,0.1,0.4,0.1c0.1,0,0.2,0,0.4,0c0.1,0,0.2-0.1,0.3-0.1L159,103.4z"/>
					</g>
					<g>
						<path class="st0" d="M160,101.2h-0.7v-0.6h2.1v0.6h-0.7v2.3H160V101.2z"/>
					</g>
				</g>
			</g>
		</g>
	</g>
</g>
</svg>
